<svg width="14" height="10" viewBox="0 0 14 10" fill="none" xmlns="http://www.w3.org/2000/svg">
<path d="M4.8966 1.96783L4.8967 1.96774L5.55437 1.31165L5.55447 1.31155L4.8966 1.96783ZM4.8966 1.96783C4.46978 2.39479 3.89089 2.63481 3.28718 2.63514L4.8966 1.96783ZM10.9396 2.04264H10.9395C10.4927 2.04255 10.0642 1.86496 9.74827 1.54895C9.74826 1.54895 9.74826 1.54894 9.74826 1.54894L9.09208 0.892764L9.09207 0.892753C8.81365 0.614249 8.43601 0.457741 8.0422 0.457651L10.9396 2.04264ZM10.9396 2.04264H11.8684C12.2622 2.04264 12.6399 2.1991 12.9184 2.47759C13.1969 2.75608 13.3534 3.13379 13.3534 3.52763V8.28261C13.3534 8.67645 13.1969 9.05416 12.9184 9.33265C12.6399 9.61114 12.2622 9.7676 11.8684 9.7676H2.35843C1.96458 9.7676 1.58687 9.61114 1.30838 9.33265C1.02989 9.05416 0.873438 8.67645 0.873438 8.28261V3.52763C0.873438 3.13379 1.02989 2.75608 1.30838 2.47759C1.58687 2.1991 1.96458 2.04264 2.35843 2.04264H3.28723H3.28725C3.7341 2.04255 4.16261 1.86496 4.47853 1.54895C4.47854 1.54895 4.47854 1.54894 4.47854 1.54894L5.13472 0.892764L5.13473 0.892753M10.9396 2.04264L5.13473 0.892753M5.13473 0.892753C5.41315 0.614249 5.79079 0.457741 6.1846 0.457651C6.1846 0.457651 6.18461 0.457651 6.18462 0.457651M5.13473 0.892753L6.18462 0.457651M6.18462 0.457651H8.04218H6.18462Z" fill="#232323" stroke="white" stroke-width="0.2"/>
<path d="M5.64269 6.98047C6.033 7.37078 6.56237 7.59005 7.11435 7.59005C7.66633 7.59005 8.1957 7.37078 8.586 6.98047C8.97631 6.59016 9.19559 6.06079 9.19559 5.50881C9.19559 4.95683 8.97631 4.42746 8.586 4.03715C8.1957 3.64684 7.66633 3.42757 7.11435 3.42757C6.56237 3.42757 6.033 3.64684 5.64269 4.03715C5.25238 4.42746 5.03311 4.95683 5.03311 5.50881C5.03311 6.06079 5.25238 6.59016 5.64269 6.98047ZM9.00496 7.39943C8.50354 7.90085 7.82346 8.18254 7.11435 8.18254C6.40523 8.18254 5.72515 7.90085 5.22373 7.39943C4.72231 6.898 4.44061 6.21793 4.44061 5.50881C4.44061 4.79969 4.72231 4.11962 5.22373 3.6182C5.72515 3.11677 6.40523 2.83508 7.11435 2.83508C7.82346 2.83508 8.50354 3.11677 9.00496 3.6182C9.50638 4.11962 9.78808 4.79969 9.78808 5.50881C9.78808 6.21793 9.50638 6.898 9.00496 7.39943ZM3.05187 3.92382C3.05187 4.00239 3.02066 4.07774 2.9651 4.1333C2.90954 4.18886 2.83419 4.22007 2.75562 4.22007C2.67705 4.22007 2.6017 4.18886 2.54614 4.1333C2.49059 4.07774 2.45938 4.00239 2.45938 3.92382C2.45938 3.84525 2.49059 3.7699 2.54614 3.71434C2.6017 3.65878 2.67705 3.62757 2.75562 3.62757C2.83419 3.62757 2.90954 3.65878 2.9651 3.71434C3.02066 3.7699 3.05187 3.84525 3.05187 3.92382Z" fill="#232323" stroke="white" stroke-width="0.2"/>
</svg>
