<svg width="25" height="24" viewBox="0 0 25 24" fill="none" xmlns="http://www.w3.org/2000/svg">
<path d="M20.713 11.6453C19.9727 10.7923 19.6363 10.0531 19.6363 8.79716V8.37013C19.6363 6.73354 19.2546 5.67907 18.4248 4.62459C17.1457 2.98699 14.9924 2 12.8845 2H12.7948C10.7312 2 8.64541 2.94167 7.34418 4.5128C6.46898 5.58842 6.04296 6.68822 6.04296 8.37013V8.79716C6.04296 10.0531 5.72873 10.7923 4.96632 11.6453C4.40535 12.2738 4.22607 13.0815 4.22607 13.9557C4.22607 14.8309 4.51714 15.6598 5.10128 16.3336C5.86369 17.1413 6.94032 17.6569 8.04012 17.7466C9.63241 17.9258 11.2247 17.9933 12.8402 17.9933C14.4546 17.9933 16.0469 17.8805 17.6402 17.7466C18.739 17.6569 19.8156 17.1413 20.578 16.3336C21.1612 15.6598 21.4532 14.8309 21.4532 13.9557C21.4532 13.0815 21.274 12.2738 20.713 11.6453Z" fill="white"/>
<path opacity="0.4" d="M14.8752 19.2284C14.3686 19.1216 11.2817 19.1216 10.7751 19.2284C10.342 19.3271 9.87372 19.5567 9.87372 20.0602C9.8989 20.5406 10.1839 20.9647 10.5787 21.2336L10.5777 21.2346C11.0883 21.6273 11.6876 21.8771 12.315 21.9668C12.6494 22.0121 12.9898 22.0101 13.3363 21.9668C13.9627 21.8771 14.562 21.6273 15.0726 21.2346L15.0716 21.2336C15.4664 20.9647 15.7514 20.5406 15.7766 20.0602C15.7766 19.5567 15.3083 19.3271 14.8752 19.2284Z" fill="white"/>
</svg>
