<svg width="25" height="20" viewBox="0 0 25 20" fill="none" xmlns="http://www.w3.org/2000/svg">
<path d="M6.24097 1.66667L3.24097 5.00001V16.6667C3.24097 17.1087 3.45168 17.5326 3.82675 17.8452C4.20183 18.1577 4.71053 18.3333 5.24097 18.3333H19.241C19.7714 18.3333 20.2801 18.1577 20.6552 17.8452C21.0303 17.5326 21.241 17.1087 21.241 16.6667V5.00001L18.241 1.66667H6.24097Z" stroke="#7B22D3" stroke-width="2" stroke-linecap="round" stroke-linejoin="round"/>
<path d="M3.24097 5H21.241" stroke="#7B22D3" stroke-width="2" stroke-linecap="round" stroke-linejoin="round"/>
<path d="M16.241 8.33333C16.241 9.21738 15.8195 10.0652 15.0694 10.6904C14.3192 11.3155 13.3018 11.6667 12.241 11.6667C11.1801 11.6667 10.1627 11.3155 9.41254 10.6904C8.66239 10.0652 8.24097 9.21738 8.24097 8.33333" stroke="#7B22D3" stroke-width="2" stroke-linecap="round" stroke-linejoin="round"/>
</svg>
