<svg width="24" height="20" viewBox="0 0 24 20" fill="none" xmlns="http://www.w3.org/2000/svg">
<path d="M20 9.99999V6.66666H6C5.46957 6.66666 4.96086 6.49107 4.58579 6.17851C4.21071 5.86595 4 5.44202 4 4.99999C4 4.08333 4.9 3.33333 6 3.33333H18V6.66666" stroke="#7621CA" stroke-width="2" stroke-linecap="round" stroke-linejoin="round"/>
<path d="M4 5V15C4 15.9167 4.9 16.6667 6 16.6667H20V13.3333" stroke="#7621CA" stroke-width="2" stroke-linecap="round" stroke-linejoin="round"/>
<path d="M18 10C17.4696 10 16.9609 10.1756 16.5858 10.4882C16.2107 10.8007 16 11.2246 16 11.6667C16 12.5833 16.9 13.3333 18 13.3333H22V10H18Z" stroke="#7621CA" stroke-width="2" stroke-linecap="round" stroke-linejoin="round"/>
</svg>
